<mxfile host="app.diagrams.net" modified="2021-06-22T13:28:07.419Z" agent="5.0 (Windows NT 10.0; Win64; x64) AppleWebKit/537.36 (KHTML, like Gecko) Chrome/91.0.4472.106 Safari/537.36" etag="_Xefdj01gUTUuUzI8j3x" version="14.8.0" type="github">
  <diagram id="b0GikksUZOuk0snxxLBZ" name="Page-1">
    <mxGraphModel dx="768" dy="427" grid="1" gridSize="10" guides="1" tooltips="1" connect="1" arrows="1" fold="1" page="1" pageScale="1" pageWidth="850" pageHeight="1100" math="0" shadow="0">
      <root>
        <mxCell id="0" />
        <mxCell id="1" parent="0" />
        <mxCell id="Zqla-DL0ByIiepzGw1xJ-1" value="VPC" style="points=[[0,0],[0.25,0],[0.5,0],[0.75,0],[1,0],[1,0.25],[1,0.5],[1,0.75],[1,1],[0.75,1],[0.5,1],[0.25,1],[0,1],[0,0.75],[0,0.5],[0,0.25]];outlineConnect=0;gradientColor=none;html=1;whiteSpace=wrap;fontSize=10;fontStyle=0;shape=mxgraph.aws4.group;grIcon=mxgraph.aws4.group_vpc;strokeColor=#248814;fillColor=none;verticalAlign=top;align=left;spacingLeft=30;fontColor=#AAB7B8;dashed=0;" vertex="1" parent="1">
          <mxGeometry x="30" y="155" width="130" height="280" as="geometry" />
        </mxCell>
        <mxCell id="Zqla-DL0ByIiepzGw1xJ-2" value="EC2" style="points=[[0,0,0],[0.25,0,0],[0.5,0,0],[0.75,0,0],[1,0,0],[0,1,0],[0.25,1,0],[0.5,1,0],[0.75,1,0],[1,1,0],[0,0.25,0],[0,0.5,0],[0,0.75,0],[1,0.25,0],[1,0.5,0],[1,0.75,0]];outlineConnect=0;fontColor=#232F3E;gradientColor=#F78E04;gradientDirection=north;fillColor=#D05C17;strokeColor=#ffffff;dashed=0;verticalLabelPosition=bottom;verticalAlign=top;align=center;html=1;fontSize=10;fontStyle=0;aspect=fixed;shape=mxgraph.aws4.resourceIcon;resIcon=mxgraph.aws4.ec2;" vertex="1" parent="1">
          <mxGeometry x="75" y="255.25" width="40" height="40" as="geometry" />
        </mxCell>
        <mxCell id="Zqla-DL0ByIiepzGw1xJ-3" value="RDS" style="points=[[0,0,0],[0.25,0,0],[0.5,0,0],[0.75,0,0],[1,0,0],[0,1,0],[0.25,1,0],[0.5,1,0],[0.75,1,0],[1,1,0],[0,0.25,0],[0,0.5,0],[0,0.75,0],[1,0.25,0],[1,0.5,0],[1,0.75,0]];outlineConnect=0;fontColor=#232F3E;gradientColor=#4D72F3;gradientDirection=north;fillColor=#3334B9;strokeColor=#ffffff;dashed=0;verticalLabelPosition=bottom;verticalAlign=top;align=center;html=1;fontSize=10;fontStyle=0;aspect=fixed;shape=mxgraph.aws4.resourceIcon;resIcon=mxgraph.aws4.rds;" vertex="1" parent="1">
          <mxGeometry x="75" y="335.25" width="40" height="40" as="geometry" />
        </mxCell>
        <mxCell id="Zqla-DL0ByIiepzGw1xJ-4" value="Phase I&#xa;&#xa;Availability Zone" style="rounded=1;arcSize=10;dashed=1;strokeColor=#F59D56;fillColor=none;gradientColor=none;dashPattern=8 4;strokeWidth=2;verticalAlign=top;fontSize=10;" vertex="1" parent="1">
          <mxGeometry x="50" y="195.25" width="90" height="214.75" as="geometry" />
        </mxCell>
        <mxCell id="Zqla-DL0ByIiepzGw1xJ-5" value="" style="shape=flexArrow;endArrow=classic;html=1;" edge="1" parent="1">
          <mxGeometry width="50" height="50" relative="1" as="geometry">
            <mxPoint x="180" y="295" as="sourcePoint" />
            <mxPoint x="220" y="295" as="targetPoint" />
          </mxGeometry>
        </mxCell>
        <mxCell id="Zqla-DL0ByIiepzGw1xJ-6" value="Availability &#xa;Zone" style="rounded=1;arcSize=10;dashed=1;fillColor=none;gradientColor=none;strokeWidth=2;verticalAlign=top;fontSize=10;strokeColor=#3399FF;" vertex="1" parent="1">
          <mxGeometry x="344.25" y="148" width="69.5" height="312" as="geometry" />
        </mxCell>
        <mxCell id="Zqla-DL0ByIiepzGw1xJ-7" value="" style="rounded=1;arcSize=10;dashed=1;fillColor=none;gradientColor=none;strokeWidth=2;fontSize=10;verticalAlign=top;strokeColor=#FFB570;" vertex="1" parent="1">
          <mxGeometry x="257" y="260" width="150" height="110" as="geometry" />
        </mxCell>
        <mxCell id="Zqla-DL0ByIiepzGw1xJ-8" value="Availability &#xa;Zone" style="rounded=1;arcSize=10;dashed=1;fillColor=none;gradientColor=none;strokeWidth=2;verticalAlign=top;fontSize=10;strokeColor=#3399FF;" vertex="1" parent="1">
          <mxGeometry x="252.25" y="150.25" width="69.5" height="309.75" as="geometry" />
        </mxCell>
        <mxCell id="Zqla-DL0ByIiepzGw1xJ-9" value="VPC" style="points=[[0,0],[0.25,0],[0.5,0],[0.75,0],[1,0],[1,0.25],[1,0.5],[1,0.75],[1,1],[0.75,1],[0.5,1],[0.25,1],[0,1],[0,0.75],[0,0.5],[0,0.25]];outlineConnect=0;gradientColor=none;html=1;whiteSpace=wrap;fontSize=10;fontStyle=0;shape=mxgraph.aws4.group;grIcon=mxgraph.aws4.group_vpc;strokeColor=#248814;fillColor=none;verticalAlign=top;align=left;spacingLeft=30;fontColor=#AAB7B8;dashed=0;" vertex="1" parent="1">
          <mxGeometry x="240" y="110" width="187" height="370" as="geometry" />
        </mxCell>
        <mxCell id="Zqla-DL0ByIiepzGw1xJ-10" value="" style="edgeStyle=orthogonalEdgeStyle;rounded=0;orthogonalLoop=1;jettySize=auto;html=1;fontSize=10;" edge="1" parent="1" source="Zqla-DL0ByIiepzGw1xJ-11" target="Zqla-DL0ByIiepzGw1xJ-12">
          <mxGeometry relative="1" as="geometry" />
        </mxCell>
        <mxCell id="Zqla-DL0ByIiepzGw1xJ-11" value="ECS/Fargate" style="points=[[0,0,0],[0.25,0,0],[0.5,0,0],[0.75,0,0],[1,0,0],[0,1,0],[0.25,1,0],[0.5,1,0],[0.75,1,0],[1,1,0],[0,0.25,0],[0,0.5,0],[0,0.75,0],[1,0.25,0],[1,0.5,0],[1,0.75,0]];outlineConnect=0;fontColor=#232F3E;gradientColor=#F78E04;gradientDirection=north;fillColor=#D05C17;strokeColor=#ffffff;dashed=0;verticalLabelPosition=bottom;verticalAlign=top;align=center;html=1;fontSize=10;fontStyle=0;aspect=fixed;shape=mxgraph.aws4.resourceIcon;resIcon=mxgraph.aws4.ec2;" vertex="1" parent="1">
          <mxGeometry x="267" y="308" width="40" height="40" as="geometry" />
        </mxCell>
        <mxCell id="Zqla-DL0ByIiepzGw1xJ-12" value="RDS" style="points=[[0,0,0],[0.25,0,0],[0.5,0,0],[0.75,0,0],[1,0,0],[0,1,0],[0.25,1,0],[0.5,1,0],[0.75,1,0],[1,1,0],[0,0.25,0],[0,0.5,0],[0,0.75,0],[1,0.25,0],[1,0.5,0],[1,0.75,0]];outlineConnect=0;fontColor=#232F3E;gradientColor=#4D72F3;gradientDirection=north;fillColor=#3334B9;strokeColor=#ffffff;dashed=0;verticalLabelPosition=bottom;verticalAlign=top;align=center;html=1;fontSize=10;fontStyle=0;aspect=fixed;shape=mxgraph.aws4.resourceIcon;resIcon=mxgraph.aws4.rds;" vertex="1" parent="1">
          <mxGeometry x="267" y="388" width="40" height="40" as="geometry" />
        </mxCell>
        <mxCell id="Zqla-DL0ByIiepzGw1xJ-13" value="ECS/Fargate" style="points=[[0,0,0],[0.25,0,0],[0.5,0,0],[0.75,0,0],[1,0,0],[0,1,0],[0.25,1,0],[0.5,1,0],[0.75,1,0],[1,1,0],[0,0.25,0],[0,0.5,0],[0,0.75,0],[1,0.25,0],[1,0.5,0],[1,0.75,0]];outlineConnect=0;fontColor=#232F3E;gradientColor=#F78E04;gradientDirection=north;fillColor=#D05C17;strokeColor=#ffffff;dashed=0;verticalLabelPosition=bottom;verticalAlign=top;align=center;html=1;fontSize=10;fontStyle=0;aspect=fixed;shape=mxgraph.aws4.resourceIcon;resIcon=mxgraph.aws4.ec2;" vertex="1" parent="1">
          <mxGeometry x="359" y="308" width="40" height="40" as="geometry" />
        </mxCell>
        <mxCell id="Zqla-DL0ByIiepzGw1xJ-14" value="RDS" style="points=[[0,0,0],[0.25,0,0],[0.5,0,0],[0.75,0,0],[1,0,0],[0,1,0],[0.25,1,0],[0.5,1,0],[0.75,1,0],[1,1,0],[0,0.25,0],[0,0.5,0],[0,0.75,0],[1,0.25,0],[1,0.5,0],[1,0.75,0]];outlineConnect=0;fontColor=#232F3E;gradientColor=#4D72F3;gradientDirection=north;fillColor=#3334B9;strokeColor=#ffffff;dashed=0;verticalLabelPosition=bottom;verticalAlign=top;align=center;html=1;fontSize=10;fontStyle=0;aspect=fixed;shape=mxgraph.aws4.resourceIcon;resIcon=mxgraph.aws4.rds;" vertex="1" parent="1">
          <mxGeometry x="359" y="388" width="40" height="40" as="geometry" />
        </mxCell>
        <mxCell id="Zqla-DL0ByIiepzGw1xJ-15" value="ALB" style="points=[[0,0,0],[0.25,0,0],[0.5,0,0],[0.75,0,0],[1,0,0],[0,1,0],[0.25,1,0],[0.5,1,0],[0.75,1,0],[1,1,0],[0,0.25,0],[0,0.5,0],[0,0.75,0],[1,0.25,0],[1,0.5,0],[1,0.75,0]];outlineConnect=0;fontColor=#232F3E;gradientColor=#945DF2;gradientDirection=north;fillColor=#5A30B5;strokeColor=#ffffff;dashed=0;verticalLabelPosition=bottom;verticalAlign=top;align=center;html=1;fontSize=10;fontStyle=0;aspect=fixed;shape=mxgraph.aws4.resourceIcon;resIcon=mxgraph.aws4.elastic_load_balancing;" vertex="1" parent="1">
          <mxGeometry x="317.5" y="191" width="29" height="29" as="geometry" />
        </mxCell>
        <mxCell id="Zqla-DL0ByIiepzGw1xJ-16" value="Auto Scaling Group" style="points=[[0,0,0],[0.25,0,0],[0.5,0,0],[0.75,0,0],[1,0,0],[0,1,0],[0.25,1,0],[0.5,1,0],[0.75,1,0],[1,1,0],[0,0.25,0],[0,0.5,0],[0,0.75,0],[1,0.25,0],[1,0.5,0],[1,0.75,0]];outlineConnect=0;fontColor=#232F3E;gradientColor=#F78E04;gradientDirection=north;fillColor=#D05C17;strokeColor=#ffffff;dashed=0;verticalLabelPosition=bottom;verticalAlign=top;align=center;html=1;fontSize=10;fontStyle=0;aspect=fixed;shape=mxgraph.aws4.resourceIcon;resIcon=mxgraph.aws4.auto_scaling3;" vertex="1" parent="1">
          <mxGeometry x="321.75" y="270" width="20" height="20" as="geometry" />
        </mxCell>
        <mxCell id="Zqla-DL0ByIiepzGw1xJ-17" value="" style="edgeStyle=elbowEdgeStyle;elbow=vertical;endArrow=classic;html=1;fontSize=10;exitX=0.5;exitY=1;exitDx=0;exitDy=0;exitPerimeter=0;entryX=0.5;entryY=0;entryDx=0;entryDy=0;entryPerimeter=0;" edge="1" parent="1" source="Zqla-DL0ByIiepzGw1xJ-13" target="Zqla-DL0ByIiepzGw1xJ-12">
          <mxGeometry width="50" height="50" relative="1" as="geometry">
            <mxPoint x="367" y="290" as="sourcePoint" />
            <mxPoint x="417" y="240" as="targetPoint" />
          </mxGeometry>
        </mxCell>
      </root>
    </mxGraphModel>
  </diagram>
</mxfile>
